<svg width="100" height="100" viewBox="0 0 100 100" fill="none" xmlns="http://www.w3.org/2000/svg">
<path d="M58.5 0H50.5V100H58.5L59 90.5L71.5 85L79.5 91.5L91.5 79L85 71.5L90 59L100 58.5V41.5L90 40.5L85 28L91 20.5L79.5 8.5L71.5 15L59 10L58.5 0Z" fill="#08475E"/>
<path d="M42.5 0H50.5V100H42.5L42 90.5L29.5 85L21.5 91.5L9.5 79L16 71.5L11 59L1 58.5V41.5L11 40.5L16 28L10 20.5L21.5 8.5L29.5 15L42 10L42.5 0Z" fill="#0A617D"/>
<circle cx="50" cy="50" r="28" fill="#BFE4F8"/>
<g clip-path="url(#clip0_6_105)">
<circle cx="50" cy="50" r="28" fill="#4BBAED"/>
</g>
<g clip-path="url(#clip1_6_105)">
<path d="M47.7563 55.9646L39.1521 47.3604C38.2017 46.41 36.6608 46.41 35.7105 47.3604C34.7601 48.3108 34.7601 49.8517 35.7105 50.8021L43.3565 58.4481C45.7601 60.8517 49.6786 60.7805 51.9932 58.291L67.4087 41.7115C68.2968 40.7564 68.2697 39.2697 67.3475 38.3475C66.3721 37.3721 64.7804 37.4064 63.8479 38.4229L47.7563 55.9646Z" fill="white"/>
</g>
<defs>
<clipPath id="clip0_6_105">
<rect width="28" height="56" fill="white" transform="translate(50 22)"/>
</clipPath>
<clipPath id="clip1_6_105">
<rect width="59" height="59" fill="white" transform="translate(23 24)"/>
</clipPath>
</defs>
</svg>
