<svg width="92" height="34" viewBox="0 0 92 34" fill="none" xmlns="http://www.w3.org/2000/svg">
<path d="M9.30198 28.422C7.87708 28.422 6.59266 28.2044 5.44873 27.7692C4.3048 27.3143 3.33145 26.6516 2.52869 25.7813C1.72593 24.8912 1.10379 23.7934 0.662277 22.4879C0.220759 21.1626 0 19.6198 0 17.8593C0 16.1187 0.220759 14.5758 0.662277 13.2308C1.10379 11.8659 1.72593 10.7286 2.52869 9.81868C3.33145 8.88901 4.3048 8.18681 5.44873 7.71209C6.59266 7.23736 7.87708 7 9.30198 7C11.2487 7 12.8542 7.3956 14.1185 8.18681C15.3829 8.95824 16.3964 10.1846 17.159 11.8659L13.2154 13.8835C12.9345 13.0132 12.4929 12.3209 11.8909 11.8066C11.3089 11.2725 10.4459 11.0055 9.30198 11.0055C7.95735 11.0055 6.87363 11.4407 6.0508 12.311C5.24804 13.1615 4.84666 14.4077 4.84666 16.0494V19.3725C4.84666 21.0143 5.24804 22.2703 6.0508 23.1407C6.87363 23.9912 7.95735 24.4165 9.30198 24.4165C10.4258 24.4165 11.3189 24.1198 11.9812 23.5264C12.6635 22.9132 13.1653 22.1813 13.4864 21.3308L17.2192 23.467C16.4365 25.0495 15.4029 26.2758 14.1185 27.1462C12.8542 27.9967 11.2487 28.422 9.30198 28.422Z" fill="#55C2FF"/>
<path d="M20.1804 28.0659V12.489H24.6357V15.8714H24.7862C24.8665 15.4363 25.007 15.0209 25.2077 14.6253C25.4084 14.2099 25.6693 13.844 25.9904 13.5275C26.3315 13.211 26.7329 12.9637 27.1945 12.7857C27.6561 12.5879 28.1979 12.489 28.8201 12.489H29.6028V16.5835H28.4889C27.1845 16.5835 26.2111 16.7516 25.5689 17.0879C24.9468 17.4242 24.6357 18.0473 24.6357 18.9571V28.0659H20.1804Z" fill="#55C2FF"/>
<path d="M42.2201 12.489H46.3744L40.2935 30.4692C39.8921 31.6758 39.3202 32.5659 38.5776 33.1396C37.8551 33.7132 36.8115 34 35.4469 34H32.6773V30.5879H35.6576L36.1994 28.867L30.6604 12.489H35.0856L37.4036 19.7582L38.5475 24.2681H38.7281L39.9022 19.7582L42.2201 12.489Z" fill="#55C2FF"/>
<path d="M48.6376 12.489H53.0929V15.1H53.2434C53.4642 14.2297 53.9659 13.5176 54.7486 12.9637C55.5514 12.4099 56.4645 12.133 57.488 12.133C59.4949 12.133 61.0101 12.8253 62.0336 14.2099C63.0572 15.5945 63.5689 17.6121 63.5689 20.2626C63.5689 22.9132 63.0572 24.9407 62.0336 26.3451C61.0101 27.7297 59.4949 28.422 57.488 28.422C56.9662 28.422 56.4745 28.3429 56.0129 28.1846C55.5514 28.0462 55.1299 27.8484 54.7486 27.5912C54.3874 27.3143 54.0763 26.9978 53.8154 26.6418C53.5545 26.2659 53.3638 25.8703 53.2434 25.4549H53.0929V34H48.6376V12.489ZM56.0129 24.8615C56.8558 24.8615 57.5482 24.5747 58.0901 24.0011C58.652 23.4077 58.933 22.6165 58.933 21.6275V18.9275C58.933 17.9385 58.652 17.1571 58.0901 16.5835C57.5482 15.9901 56.8558 15.6934 56.0129 15.6934C55.17 15.6934 54.4676 15.9011 53.9057 16.3165C53.3638 16.7121 53.0929 17.2659 53.0929 17.978V22.5769C53.0929 23.289 53.3638 23.8527 53.9057 24.2681C54.4676 24.6637 55.17 24.8615 56.0129 24.8615Z" fill="#55C2FF"/>
<path d="M72.3152 28.0659C70.7698 28.0659 69.5958 27.6802 68.793 26.9088C68.0104 26.1374 67.619 25.0099 67.619 23.5264V15.9011H65.3913V12.489H66.5052C67.1073 12.489 67.5187 12.3505 67.7394 12.0736C67.9602 11.7769 68.0706 11.3615 68.0706 10.8275V8.27582H72.0743V12.489H75.2051V15.9011H72.0743V24.6538H74.9643V28.0659H72.3152Z" fill="#55C2FF"/>
<path d="M84.5946 28.422C83.4305 28.422 82.387 28.2341 81.4638 27.8582C80.5607 27.4824 79.788 26.9385 79.1458 26.2264C78.5237 25.5143 78.042 24.6538 77.7009 23.6451C77.3597 22.6363 77.1891 21.5088 77.1891 20.2626C77.1891 19.0165 77.3597 17.889 77.7009 16.8802C78.042 15.8714 78.5237 15.0209 79.1458 14.3286C79.788 13.6165 80.5607 13.0725 81.4638 12.6967C82.387 12.3209 83.4305 12.133 84.5946 12.133C85.7586 12.133 86.7921 12.3209 87.6952 12.6967C88.6184 13.0725 89.391 13.6165 90.0132 14.3286C90.6554 15.0209 91.1471 15.8714 91.4883 16.8802C91.8294 17.889 92 19.0165 92 20.2626C92 21.5088 91.8294 22.6363 91.4883 23.6451C91.1471 24.6538 90.6554 25.5143 90.0132 26.2264C89.391 26.9385 88.6184 27.4824 87.6952 27.8582C86.7921 28.2341 85.7586 28.422 84.5946 28.422ZM84.5946 24.9506C85.4776 24.9506 86.1599 24.6835 86.6416 24.1495C87.1232 23.6154 87.3641 22.8538 87.3641 21.8648V18.6901C87.3641 17.7011 87.1232 16.9396 86.6416 16.4055C86.1599 15.8714 85.4776 15.6044 84.5946 15.6044C83.7115 15.6044 83.0292 15.8714 82.5475 16.4055C82.0659 16.9396 81.825 17.7011 81.825 18.6901V21.8648C81.825 22.8538 82.0659 23.6154 82.5475 24.1495C83.0292 24.6835 83.7115 24.9506 84.5946 24.9506Z" fill="#55C2FF"/>
<path d="M19 0H54V4H19V0Z" fill="#55C2FF"/>
</svg>
