<svg width="100" height="100" viewBox="0 0 100 100" fill="none" xmlns="http://www.w3.org/2000/svg">
<g clip-path="url(#clip0_6_149)">
<path d="M50 77.9389L75.6045 93.5284C77.1172 94.4493 78.9922 93.0949 78.5932 91.3695L71.792 61.96L94.4558 42.1542C95.7843 40.9932 95.0681 38.8059 93.3102 38.6555L63.488 36.1032L51.8439 8.38864C51.1575 6.7549 48.8425 6.7549 48.1561 8.38864L36.512 36.1032L6.68977 38.6555C4.93187 38.8059 4.21573 40.9932 5.54425 42.1542L28.208 61.96L21.4069 91.3694C21.0078 93.0949 22.8828 94.4493 24.3955 93.5284L50 77.9389Z" fill="#BFE4F8"/>
</g>
<g clip-path="url(#clip1_6_149)">
<path d="M50 78.3692L76.327 94.2591C77.8417 95.1733 79.7101 93.8153 79.3082 92.0924L72.3217 62.1442L95.5839 41.9921C96.9211 40.8337 96.2063 38.6372 94.4435 38.4876L63.8159 35.8892L51.8415 7.63643C51.1523 6.01037 48.8478 6.01037 48.1586 7.63643L36.1842 35.8892L5.55664 38.4876C3.79379 38.6372 3.07897 40.8337 4.41616 41.9921L27.6784 62.1442L20.6919 92.0924C20.2899 93.8153 22.1584 95.1733 23.673 94.2591L50 78.3692Z" fill="#4BBAED"/>
</g>
<defs>
<clipPath id="clip0_6_149">
<rect width="96" height="96" fill="white" transform="translate(2 2)"/>
</clipPath>
<clipPath id="clip1_6_149">
<rect width="47" height="88" fill="white" transform="translate(50 7)"/>
</clipPath>
</defs>
</svg>
