<svg width="100" height="100" viewBox="0 0 100 100" fill="none" xmlns="http://www.w3.org/2000/svg">
<path d="M50 100V0L89.6106 23.4729C90.1685 23.8035 90.534 24.4029 90.5816 25.0496C94.5665 79.2231 60.9297 96.5224 50 100Z" fill="#4BBAED"/>
<path d="M50.9077 100V0L11.2971 23.4729C10.7393 23.8035 10.3737 24.4029 10.3262 25.0496C6.34124 79.2231 39.978 96.5224 50.9077 100Z" fill="#BFE4F8"/>
<path d="M49.7667 57.4063L41.1625 48.8021C40.2121 47.8517 38.6712 47.8517 37.7208 48.8021C36.7704 49.7525 36.7704 51.2934 37.7208 52.2438L45.3669 59.8898C47.7705 62.2934 51.6889 62.2222 54.0036 59.7327L69.4191 43.1532C70.3071 42.1981 70.2801 40.7114 69.3579 39.7892C68.3825 38.8138 66.7908 38.8481 65.8583 39.8646L49.7667 57.4063Z" fill="white"/>
</svg>
