<svg width="100" height="100" viewBox="0 0 100 100" fill="none" xmlns="http://www.w3.org/2000/svg">
<path d="M49.9958 65.5028L0 66.0028C0 46.4028 8.33264 33.8361 12.499 30.0028L49.9958 65.5028Z" fill="#BFE4F8"/>
<path d="M49.9958 65.5028L11.7752 30.7C21.4982 16.5005 44.3358 12.8847 49.9958 13.0028V65.5028Z" fill="#92D1F3"/>
<path d="M99.9917 65.5028H49.9958V13.0028C90.7924 15.8028 100.325 49.1694 99.9917 65.5028Z" fill="#15A0EC"/>
<ellipse cx="40.9966" cy="60.5032" rx="28.9976" ry="29" fill="white"/>
<path d="M90.0451 32.501L46.5487 77.001L38.0494 72.001L90.0451 20.001V32.501Z" fill="#6FC8F1"/>
<path d="M77.0464 20.0187L33.5499 63.501L38.0496 72.0742L89.9721 20.0011L77.0464 20.0187Z" fill="#B7E4F8"/>
<ellipse rx="12.4995" ry="12.4995" transform="matrix(0.679289 0.73387 -0.733814 0.67935 44.6608 65.613)" fill="#388CB3"/>
<g clip-path="url(#clip0_6_127)">
<circle r="12.5" transform="matrix(0.679289 0.733871 -0.733814 0.679351 44.6605 65.6133)" fill="#265D77"/>
</g>
<defs>
<clipPath id="clip0_6_127">
<rect width="12.9994" height="24.9989" fill="white" transform="matrix(0.679289 0.733871 -0.733814 0.679351 53.4935 56.7545)"/>
</clipPath>
</defs>
</svg>
